<?xml version="1.0" encoding="UTF-8"?>
<svg xmlns="http://www.w3.org/2000/svg" version="1.1" xmlns:xlink="http://www.w3.org/1999/xlink" viewBox="0 0 254.7 418.53">
  <!-- Generator: Adobe Illustrator 29.1.0, SVG Export Plug-In . SVG Version: 2.1.0 Build 142)  -->
  <defs>
    <style>
      .st0 {
        fill: url(#_Áåçûìÿííûé_ãðàäèåíò_75);
      }

      .st0, .st1, .st2, .st3, .st4, .st5, .st6 {
        fill-rule: evenodd;
      }

      .st1 {
        fill: url(#_Áåçûìÿííûé_ãðàäèåíò_72);
      }

      .st2 {
        fill: url(#_Áåçûìÿííûé_ãðàäèåíò_73);
      }

      .st3 {
        fill: url(#_Áåçûìÿííûé_ãðàäèåíò_74);
      }

      .st7 {
        isolation: isolate;
      }

      .st4 {
        fill: url(#_Áåçûìÿííûé_ãðàäèåíò_71);
      }

      .st8 {
        filter: url(#outer-glow-1);
      }

      .st5 {
        fill: url(#_Áåçûìÿííûé_ãðàäèåíò_76);
        mix-blend-mode: screen;
      }

      .st6 {
        fill: url(#_Áåçûìÿííûé_ãðàäèåíò_7);
      }
    </style>
    <filter id="outer-glow-1" x="-14.63" y="-10.09" width="284.16" height="438.72" filterUnits="userSpaceOnUse">
      <feOffset dx="0" dy="0"/>
      <feGaussianBlur result="blur" stdDeviation="5"/>
      <feFlood flood-color="#f7e46f" flood-opacity=".75"/>
      <feComposite in2="blur" operator="in"/>
      <feComposite in="SourceGraphic"/>
    </filter>
    <linearGradient id="_Áåçûìÿííûé_ãðàäèåíò_7" data-name="Áåçûìÿííûé ãðàäèåíò 7" x1=".39" y1="209.27" x2="9.15" y2="209.27" gradientUnits="userSpaceOnUse">
      <stop offset="0" stop-color="#a46532"/>
      <stop offset=".06" stop-color="#ad7139"/>
      <stop offset=".16" stop-color="#c7914c"/>
      <stop offset=".3" stop-color="#efc56b"/>
      <stop offset=".47" stop-color="#f8e6bf"/>
      <stop offset=".54" stop-color="#f4d99e"/>
      <stop offset=".66" stop-color="#efc56b"/>
      <stop offset=".7" stop-color="#dfb15f"/>
      <stop offset=".78" stop-color="#c5904b"/>
      <stop offset=".86" stop-color="#b3783d"/>
      <stop offset=".94" stop-color="#a76934"/>
      <stop offset="1" stop-color="#a46532"/>
    </linearGradient>
    <linearGradient id="_Áåçûìÿííûé_ãðàäèåíò_71" data-name="Áåçûìÿííûé ãðàäèåíò 7" x1="245.55" x2="254.31" xlink:href="#_Áåçûìÿííûé_ãðàäèåíò_7"/>
    <linearGradient id="_Áåçûìÿííûé_ãðàäèåíò_72" data-name="Áåçûìÿííûé ãðàäèåíò 7" y1="44.1" x2="127.35" y2="44.1" xlink:href="#_Áåçûìÿííûé_ãðàäèåíò_7"/>
    <linearGradient id="_Áåçûìÿííûé_ãðàäèåíò_73" data-name="Áåçûìÿííûé ãðàäèåíò 7" x1="252.12" y1="82.01" x2="125.16" y2="8.71" xlink:href="#_Áåçûìÿííûé_ãðàäèåíò_7"/>
    <linearGradient id="_Áåçûìÿííûé_ãðàäèåíò_74" data-name="Áåçûìÿííûé ãðàäèåíò 7" x1="129.54" y1="409.83" x2="2.58" y2="336.52" xlink:href="#_Áåçûìÿííûé_ãðàäèåíò_7"/>
    <linearGradient id="_Áåçûìÿííûé_ãðàäèåíò_75" data-name="Áåçûìÿííûé ãðàäèåíò 7" x1="252.12" y1="336.52" x2="125.16" y2="409.83" xlink:href="#_Áåçûìÿííûé_ãðàäèåíò_7"/>
    <linearGradient id="_Áåçûìÿííûé_ãðàäèåíò_76" data-name="Áåçûìÿííûé ãðàäèåíò 7" x1="2.16" y1="112.17" x2="101.39" y2="112.17" xlink:href="#_Áåçûìÿííûé_ãðàäèåíò_7"/>
  </defs>
  <g class="st7">
    <g id="TEXTS">
      <g class="st8">
        <polygon class="st6" points="9.15 335.26 9.15 83.27 .39 78.22 .39 340.32 9.15 335.26 9.15 335.26"/>
        <g>
          <polygon class="st4" points="245.55 83.27 245.55 335.26 254.31 340.32 254.31 78.22 245.55 83.27 245.55 83.27"/>
          <polygon class="st1" points="9.15 83.27 127.35 15.03 127.35 4.92 .39 78.22 9.15 83.27 9.15 83.27"/>
          <polygon class="st2" points="127.35 15.03 245.55 83.27 254.31 78.22 127.35 4.92 127.35 15.03 127.35 15.03"/>
          <polygon class="st3" points="127.35 403.5 9.15 335.26 .39 340.32 127.35 413.62 127.35 403.5 127.35 403.5"/>
          <polygon class="st0" points="245.55 335.26 127.35 403.5 127.35 413.62 254.31 340.32 245.55 335.26 245.55 335.26"/>
          <polygon class="st5" points="9.15 194.31 7.89 83.61 2.16 79.24 8.93 81.98 101.39 30.02 10.15 83.84 9.15 194.31 9.15 194.31"/>
        </g>
      </g>
    </g>
  </g>
</svg>